<?xml version="1.0" encoding="UTF-8"?>
<svg width="110px" height="34px" viewBox="0 0 110 34" version="1.1" xmlns="http://www.w3.org/2000/svg" xmlns:xlink="http://www.w3.org/1999/xlink">
    <title>编组 2</title>
    <g id="页面-1" stroke="none" stroke-width="1" fill="none" fill-rule="evenodd">
        <g id="编组-2" fill="#BBF74C">
            <path d="M110,4 L110,34 L8,34 L8,30 L4,30 L4,34 L0,34 L0,30 L4,30 L4,26 L0,26 L0,4 L4,4 L4,0 L98,0 L98,4 L102,4 L102,0 L106,0 L106,4 L102,4 L102,8 L106,8 L106,4 L110,4 Z M12,26 L8,26 L8,30 L12,30 L12,26 Z" id="形状结合"></path>
        </g>
    </g>
</svg>