<?xml version="1.0" encoding="UTF-8"?>
<svg width="66px" height="106px" viewBox="0 0 66 106" version="1.1" xmlns="http://www.w3.org/2000/svg" xmlns:xlink="http://www.w3.org/1999/xlink">
    <title>路径 5</title>
    <g id="页面-1" stroke="none" stroke-width="1" fill="none" fill-rule="evenodd">
        <g id="画板备份-19" transform="translate(-0.500000, -0.500000)" stroke="#5F5F5F">
            <polygon id="路径-5" points="1 1 20.2069069 1 46.9666369 12.6130127 66 12.6130127 66 25 46.9666369 25 20.2069069 13.8641872 1 13.8641872"></polygon>
            <polygon id="路径-5备份" points="1 27.33 20.2069069 27.33 46.9666369 38.9430127 66 38.9430127 66 51.33 46.9666369 51.33 20.2069069 40.1941872 1 40.1941872"></polygon>
            <polygon id="路径-5备份-2" points="1 53.66 20.2069069 53.66 46.9666369 65.2730127 66 65.2730127 66 77.66 46.9666369 77.66 20.2069069 66.5241872 1 66.5241872"></polygon>
            <polygon id="路径-5备份-3" points="1 79.99 20.2069069 79.99 46.9666369 91.6030127 66 91.6030127 66 103.99 46.9666369 103.99 20.2069069 92.8541872 1 92.8541872"></polygon>
        </g>
    </g>
</svg>